<mxfile host="app.diagrams.net" modified="2021-06-04T16:02:28.684Z" agent="5.0 (Windows NT 10.0; Win64; x64) AppleWebKit/537.36 (KHTML, like Gecko) Chrome/91.0.4472.77 Safari/537.36" etag="mF9sBRe1pUkEzcPpYSyz" version="14.7.6" type="github">
  <diagram id="NKFSxz8d6gxM9_64bv1M" name="Page-1">
    <mxGraphModel dx="580" dy="866" grid="1" gridSize="10" guides="1" tooltips="1" connect="1" arrows="1" fold="1" page="1" pageScale="1" pageWidth="827" pageHeight="1169" math="0" shadow="0">
      <root>
        <mxCell id="0" />
        <mxCell id="1" parent="0" />
        <mxCell id="929bHSxcrPBquTTSh3v7-3" value="" style="ellipse;whiteSpace=wrap;html=1;aspect=fixed;" vertex="1" parent="1">
          <mxGeometry x="80" y="400" width="110" height="110" as="geometry" />
        </mxCell>
        <mxCell id="929bHSxcrPBquTTSh3v7-1" value="" style="ellipse;whiteSpace=wrap;html=1;aspect=fixed;" vertex="1" parent="1">
          <mxGeometry y="400" width="110" height="110" as="geometry" />
        </mxCell>
        <mxCell id="929bHSxcrPBquTTSh3v7-2" value="" style="ellipse;whiteSpace=wrap;html=1;rotation=-88;" vertex="1" parent="1">
          <mxGeometry x="-30" y="320" width="270" height="80" as="geometry" />
        </mxCell>
      </root>
    </mxGraphModel>
  </diagram>
</mxfile>
